<mxfile host="app.diagrams.net" modified="2021-01-24T20:32:21.793Z" agent="5.0 (X11; Linux x86_64) AppleWebKit/537.36 (KHTML, like Gecko) Chrome/84.0.4147.135 Safari/537.36" etag="rkoJrlkREjNEFtZDr0y1" version="14.2.4" type="github">
  <diagram id="A91M5ELpAABngitucYwG" name="Page-1">
    <mxGraphModel dx="3316" dy="1929" grid="1" gridSize="10" guides="1" tooltips="1" connect="1" arrows="1" fold="1" page="1" pageScale="1" pageWidth="827" pageHeight="1169" math="0" shadow="0">
      <root>
        <mxCell id="0" />
        <mxCell id="1" parent="0" />
        <mxCell id="IDgOD7vs3Vg6ekD3lwbi-4" value="" style="group" vertex="1" connectable="0" parent="1">
          <mxGeometry x="190" y="90" width="70" height="70" as="geometry" />
        </mxCell>
        <mxCell id="IDgOD7vs3Vg6ekD3lwbi-1" value="" style="ellipse;whiteSpace=wrap;html=1;shadow=1;" vertex="1" parent="IDgOD7vs3Vg6ekD3lwbi-4">
          <mxGeometry width="70" height="70" as="geometry" />
        </mxCell>
        <mxCell id="IDgOD7vs3Vg6ekD3lwbi-2" value="Data Structures" style="text;html=1;strokeColor=none;fillColor=none;align=center;verticalAlign=middle;whiteSpace=wrap;rounded=0;shadow=1;" vertex="1" parent="IDgOD7vs3Vg6ekD3lwbi-4">
          <mxGeometry x="15" y="20" width="40" height="20" as="geometry" />
        </mxCell>
        <mxCell id="IDgOD7vs3Vg6ekD3lwbi-14" style="edgeStyle=orthogonalEdgeStyle;rounded=0;orthogonalLoop=1;jettySize=auto;html=1;exitX=0.75;exitY=1;exitDx=0;exitDy=0;" edge="1" parent="1" source="IDgOD7vs3Vg6ekD3lwbi-7" target="IDgOD7vs3Vg6ekD3lwbi-11">
          <mxGeometry relative="1" as="geometry" />
        </mxCell>
        <mxCell id="IDgOD7vs3Vg6ekD3lwbi-15" style="edgeStyle=orthogonalEdgeStyle;rounded=0;orthogonalLoop=1;jettySize=auto;html=1;exitX=1;exitY=1;exitDx=0;exitDy=0;" edge="1" parent="1" source="IDgOD7vs3Vg6ekD3lwbi-7" target="IDgOD7vs3Vg6ekD3lwbi-12">
          <mxGeometry relative="1" as="geometry" />
        </mxCell>
        <mxCell id="IDgOD7vs3Vg6ekD3lwbi-16" style="edgeStyle=orthogonalEdgeStyle;rounded=0;orthogonalLoop=1;jettySize=auto;html=1;entryX=0.25;entryY=0;entryDx=0;entryDy=0;" edge="1" parent="1" target="IDgOD7vs3Vg6ekD3lwbi-13">
          <mxGeometry relative="1" as="geometry">
            <mxPoint x="120" y="200" as="sourcePoint" />
          </mxGeometry>
        </mxCell>
        <mxCell id="IDgOD7vs3Vg6ekD3lwbi-7" value="Homegenous" style="text;html=1;strokeColor=none;fillColor=none;align=center;verticalAlign=middle;whiteSpace=wrap;rounded=0;shadow=1;" vertex="1" parent="1">
          <mxGeometry x="60" y="190" width="40" height="20" as="geometry" />
        </mxCell>
        <mxCell id="IDgOD7vs3Vg6ekD3lwbi-20" style="edgeStyle=orthogonalEdgeStyle;rounded=0;orthogonalLoop=1;jettySize=auto;html=1;exitX=0.5;exitY=1;exitDx=0;exitDy=0;entryX=0.5;entryY=0;entryDx=0;entryDy=0;" edge="1" parent="1" source="IDgOD7vs3Vg6ekD3lwbi-8" target="IDgOD7vs3Vg6ekD3lwbi-21">
          <mxGeometry relative="1" as="geometry">
            <mxPoint x="530" y="280" as="targetPoint" />
          </mxGeometry>
        </mxCell>
        <mxCell id="IDgOD7vs3Vg6ekD3lwbi-8" value="Hetrogenous" style="text;html=1;strokeColor=none;fillColor=none;align=center;verticalAlign=middle;whiteSpace=wrap;rounded=0;shadow=1;" vertex="1" parent="1">
          <mxGeometry x="640" y="180" width="40" height="20" as="geometry" />
        </mxCell>
        <mxCell id="IDgOD7vs3Vg6ekD3lwbi-9" style="edgeStyle=orthogonalEdgeStyle;rounded=0;orthogonalLoop=1;jettySize=auto;html=1;" edge="1" parent="1" source="IDgOD7vs3Vg6ekD3lwbi-1">
          <mxGeometry relative="1" as="geometry">
            <mxPoint x="60" y="180" as="targetPoint" />
          </mxGeometry>
        </mxCell>
        <mxCell id="IDgOD7vs3Vg6ekD3lwbi-10" style="edgeStyle=orthogonalEdgeStyle;rounded=0;orthogonalLoop=1;jettySize=auto;html=1;entryX=0.25;entryY=0;entryDx=0;entryDy=0;" edge="1" parent="1" source="IDgOD7vs3Vg6ekD3lwbi-1" target="IDgOD7vs3Vg6ekD3lwbi-8">
          <mxGeometry relative="1" as="geometry">
            <mxPoint x="290" y="170" as="targetPoint" />
          </mxGeometry>
        </mxCell>
        <mxCell id="IDgOD7vs3Vg6ekD3lwbi-11" value="Atomic Vector&amp;nbsp;" style="text;html=1;align=center;verticalAlign=middle;resizable=0;points=[];autosize=1;" vertex="1" parent="1">
          <mxGeometry x="-40" y="270" width="90" height="20" as="geometry" />
        </mxCell>
        <mxCell id="IDgOD7vs3Vg6ekD3lwbi-12" value="Matrix" style="text;html=1;strokeColor=none;fillColor=none;align=center;verticalAlign=middle;whiteSpace=wrap;rounded=0;shadow=1;" vertex="1" parent="1">
          <mxGeometry x="200" y="290" width="40" height="20" as="geometry" />
        </mxCell>
        <mxCell id="IDgOD7vs3Vg6ekD3lwbi-13" value="Array" style="text;html=1;strokeColor=none;fillColor=none;align=center;verticalAlign=middle;whiteSpace=wrap;rounded=0;shadow=1;" vertex="1" parent="1">
          <mxGeometry x="300" y="290" width="40" height="20" as="geometry" />
        </mxCell>
        <mxCell id="IDgOD7vs3Vg6ekD3lwbi-18" value="&lt;div&gt;Tests available&lt;/div&gt;&lt;ul&gt;&lt;li&gt;Typeof&lt;/li&gt;&lt;li&gt;is.atomic&lt;/li&gt;&lt;li&gt;is.integer&lt;/li&gt;&lt;/ul&gt;&lt;br&gt;&lt;br&gt;&lt;blockquote style=&quot;margin: 0 0 0 40px ; border: none ; padding: 0px&quot;&gt;&lt;br&gt;&lt;/blockquote&gt;" style="text;html=1;strokeColor=none;fillColor=none;align=center;verticalAlign=middle;whiteSpace=wrap;rounded=0;shadow=1;" vertex="1" parent="1">
          <mxGeometry x="-70" y="310" width="170" height="99" as="geometry" />
        </mxCell>
        <mxCell id="IDgOD7vs3Vg6ekD3lwbi-21" value="Lists" style="text;html=1;strokeColor=none;fillColor=none;align=center;verticalAlign=middle;whiteSpace=wrap;rounded=0;shadow=1;" vertex="1" parent="1">
          <mxGeometry x="510" y="280" width="40" height="20" as="geometry" />
        </mxCell>
        <mxCell id="IDgOD7vs3Vg6ekD3lwbi-22" value="Can be of any type or length&lt;br&gt;&lt;br&gt;&lt;ul&gt;&lt;li&gt;Recursive vectors , because a list can contain other&amp;nbsp; list&lt;/li&gt;&lt;li&gt;Can Create list of list of lists ..&lt;/li&gt;&lt;li&gt;Lists can be combined to form data frames and other complicated objects&amp;nbsp;&lt;/li&gt;&lt;/ul&gt;&lt;div&gt;&lt;br&gt;&lt;/div&gt;" style="text;html=1;strokeColor=none;fillColor=none;align=center;verticalAlign=middle;whiteSpace=wrap;rounded=0;shadow=1;" vertex="1" parent="1">
          <mxGeometry x="435" y="400" width="190" height="30" as="geometry" />
        </mxCell>
        <mxCell id="IDgOD7vs3Vg6ekD3lwbi-23" value="Attributes&lt;br&gt;&lt;br&gt;All objects have additional attribute which stores meta-data&lt;br&gt;&lt;ul&gt;&lt;li&gt;Attributes can be accessed individually with attr() or all at once (as a list) with attributes()&lt;/li&gt;&lt;li&gt;&lt;br&gt;&lt;/li&gt;&lt;/ul&gt;" style="text;html=1;strokeColor=none;fillColor=none;align=center;verticalAlign=middle;whiteSpace=wrap;rounded=0;shadow=1;" vertex="1" parent="1">
          <mxGeometry x="-370" y="450" width="240" height="100" as="geometry" />
        </mxCell>
        <mxCell id="IDgOD7vs3Vg6ekD3lwbi-25" style="edgeStyle=orthogonalEdgeStyle;rounded=0;orthogonalLoop=1;jettySize=auto;html=1;exitX=0.5;exitY=0;exitDx=0;exitDy=0;" edge="1" parent="1" source="IDgOD7vs3Vg6ekD3lwbi-24">
          <mxGeometry relative="1" as="geometry">
            <mxPoint x="-550" y="-40" as="targetPoint" />
          </mxGeometry>
        </mxCell>
        <mxCell id="IDgOD7vs3Vg6ekD3lwbi-29" style="edgeStyle=orthogonalEdgeStyle;rounded=0;orthogonalLoop=1;jettySize=auto;html=1;entryX=0.5;entryY=0;entryDx=0;entryDy=0;" edge="1" parent="1" source="IDgOD7vs3Vg6ekD3lwbi-24" target="IDgOD7vs3Vg6ekD3lwbi-26">
          <mxGeometry relative="1" as="geometry">
            <mxPoint x="-810" y="220" as="targetPoint" />
          </mxGeometry>
        </mxCell>
        <mxCell id="IDgOD7vs3Vg6ekD3lwbi-24" value="Object oriented programming" style="ellipse;whiteSpace=wrap;html=1;shadow=1;" vertex="1" parent="1">
          <mxGeometry x="-670" y="45" width="130" height="115" as="geometry" />
        </mxCell>
        <mxCell id="IDgOD7vs3Vg6ekD3lwbi-26" value="S3 Classes" style="text;html=1;strokeColor=none;fillColor=none;align=center;verticalAlign=middle;whiteSpace=wrap;rounded=0;shadow=1;" vertex="1" parent="1">
          <mxGeometry x="-830" y="250" width="40" height="20" as="geometry" />
        </mxCell>
        <mxCell id="IDgOD7vs3Vg6ekD3lwbi-27" value="S4 Classes" style="text;html=1;strokeColor=none;fillColor=none;align=center;verticalAlign=middle;whiteSpace=wrap;rounded=0;shadow=1;" vertex="1" parent="1">
          <mxGeometry x="-670" y="250" width="40" height="20" as="geometry" />
        </mxCell>
        <mxCell id="IDgOD7vs3Vg6ekD3lwbi-28" value="RC (Reference classes)" style="text;html=1;strokeColor=none;fillColor=none;align=center;verticalAlign=middle;whiteSpace=wrap;rounded=0;shadow=1;" vertex="1" parent="1">
          <mxGeometry x="-470" y="250" width="40" height="20" as="geometry" />
        </mxCell>
        <mxCell id="IDgOD7vs3Vg6ekD3lwbi-31" value="Assignment&amp;nbsp; : Use class() or structure() to give a class name" style="text;html=1;strokeColor=none;fillColor=none;align=center;verticalAlign=middle;whiteSpace=wrap;rounded=0;shadow=1;" vertex="1" parent="1">
          <mxGeometry x="-970" y="310" width="130" height="20" as="geometry" />
        </mxCell>
        <mxCell id="IDgOD7vs3Vg6ekD3lwbi-34" style="edgeStyle=orthogonalEdgeStyle;rounded=0;orthogonalLoop=1;jettySize=auto;html=1;" edge="1" parent="1" source="IDgOD7vs3Vg6ekD3lwbi-32" target="IDgOD7vs3Vg6ekD3lwbi-35">
          <mxGeometry relative="1" as="geometry">
            <mxPoint x="-780" y="-70" as="targetPoint" />
          </mxGeometry>
        </mxCell>
        <mxCell id="IDgOD7vs3Vg6ekD3lwbi-44" style="edgeStyle=orthogonalEdgeStyle;rounded=0;orthogonalLoop=1;jettySize=auto;html=1;" edge="1" parent="1" source="IDgOD7vs3Vg6ekD3lwbi-32">
          <mxGeometry relative="1" as="geometry">
            <mxPoint x="-620" y="-210" as="targetPoint" />
          </mxGeometry>
        </mxCell>
        <mxCell id="IDgOD7vs3Vg6ekD3lwbi-32" value="What is a Class ?&amp;nbsp;&lt;br&gt;&lt;br&gt;Class is a blue print of an object including , what it is&amp;nbsp; , how it does , and how to make it&amp;nbsp; &amp;nbsp;Eg: Build a&amp;nbsp; bus&amp;nbsp; , how to drive&amp;nbsp;" style="text;html=1;strokeColor=none;fillColor=none;align=center;verticalAlign=middle;whiteSpace=wrap;rounded=0;shadow=1;" vertex="1" parent="1">
          <mxGeometry x="-650" y="-100" width="200" height="20" as="geometry" />
        </mxCell>
        <mxCell id="IDgOD7vs3Vg6ekD3lwbi-36" style="edgeStyle=orthogonalEdgeStyle;rounded=0;orthogonalLoop=1;jettySize=auto;html=1;exitX=0;exitY=0.25;exitDx=0;exitDy=0;" edge="1" parent="1" source="IDgOD7vs3Vg6ekD3lwbi-35">
          <mxGeometry relative="1" as="geometry">
            <mxPoint x="-1060" y="-10" as="targetPoint" />
          </mxGeometry>
        </mxCell>
        <mxCell id="IDgOD7vs3Vg6ekD3lwbi-35" value="Each action can / what each object does can be described using a &lt;b&gt;Method&amp;nbsp;&lt;/b&gt;" style="text;html=1;strokeColor=none;fillColor=none;align=center;verticalAlign=middle;whiteSpace=wrap;rounded=0;shadow=1;" vertex="1" parent="1">
          <mxGeometry x="-949" y="-80" width="140" height="20" as="geometry" />
        </mxCell>
        <mxCell id="IDgOD7vs3Vg6ekD3lwbi-37" value="We can use a &lt;b&gt;Constructor&lt;/b&gt; to create objects of specific attributes" style="text;html=1;strokeColor=none;fillColor=none;align=center;verticalAlign=middle;whiteSpace=wrap;rounded=0;shadow=1;" vertex="1" parent="1">
          <mxGeometry x="-1090" width="100" height="70" as="geometry" />
        </mxCell>
        <mxCell id="IDgOD7vs3Vg6ekD3lwbi-40" value="&lt;b&gt;Inherit&lt;/b&gt; classes to acess propoerties of the calss Eg : Party buses" style="text;html=1;strokeColor=none;fillColor=none;align=center;verticalAlign=middle;whiteSpace=wrap;rounded=0;shadow=1;" vertex="1" parent="1">
          <mxGeometry x="-680" y="-250" width="140" height="20" as="geometry" />
        </mxCell>
        <mxCell id="IDgOD7vs3Vg6ekD3lwbi-41" value="Text" style="text;html=1;align=center;verticalAlign=middle;resizable=0;points=[];autosize=1;" vertex="1" parent="1">
          <mxGeometry x="-1000" y="-250" width="40" height="20" as="geometry" />
        </mxCell>
      </root>
    </mxGraphModel>
  </diagram>
</mxfile>
